<?xml version="1.0" standalone="no"?>
<!DOCTYPE svg PUBLIC "-//W3C//DTD SVG 20010904//EN"
 "http://www.w3.org/TR/2001/REC-SVG-20010904/DTD/svg10.dtd">
<svg version="1.0" xmlns="http://www.w3.org/2000/svg"
 width="500.000000pt" height="500.000000pt" viewBox="0 0 500.000000 500.000000"
 preserveAspectRatio="xMidYMid meet">
<metadata>
Created by potrace 1.16, written by Peter Selinger 2001-2019
</metadata>
<g transform="translate(0.000000,500.000000) scale(0.100000,-0.100000)"
fill="#000000" stroke="none">
<path d="M2460 4740 c-12 -8 -12 -12 -2 -18 19 -13 -80 -51 -149 -59 -34 -3
-71 -1 -93 7 -32 10 -40 10 -55 -4 -10 -9 -23 -16 -29 -16 -15 0 -15 -6 -2
-30 8 -16 5 -19 -28 -23 -62 -9 -144 -26 -149 -31 -2 -2 5 -23 16 -47 26 -53
26 -59 0 -59 -11 0 -29 -5 -40 -10 -22 -13 -52 -66 -45 -83 3 -8 5 -6 5 3 1
16 41 -64 41 -82 0 -6 -7 -8 -15 -4 -8 3 -15 4 -15 2 0 -11 31 -75 39 -80 4
-3 6 -18 4 -33 -2 -16 -6 -47 -8 -71 -3 -26 -15 -57 -31 -77 -26 -34 -26 -35
-5 -35 11 0 21 -4 21 -9 0 -5 12 -11 28 -13 18 -2 26 -8 24 -18 -2 -8 -4 -28
-4 -45 0 -16 -6 -41 -13 -55 -7 -14 -15 -46 -18 -70 -7 -63 -9 -70 -34 -96
-13 -13 -23 -31 -24 -41 0 -17 -1 -17 -8 1 -4 10 -7 -12 -7 -52 1 -38 4 -65 8
-59 7 11 12 -23 10 -68 0 -11 2 -14 5 -7 3 8 12 -1 24 -23 11 -20 17 -40 15
-44 -3 -4 6 -19 19 -31 14 -13 25 -20 25 -16 0 5 6 4 13 0 6 -5 23 -9 37 -9
l25 0 -4 151 c-2 83 0 161 4 174 14 43 45 -102 45 -203 -1 -64 5 -106 20 -151
28 -84 79 -168 112 -184 18 -8 49 -49 88 -115 54 -90 57 -98 28 -69 -19 17
-37 32 -41 32 -4 0 -7 -26 -7 -57 0 -32 -4 -64 -9 -72 -12 -19 -31 -4 -31 25
0 28 -12 31 -31 8 -10 -12 -10 -25 -2 -55 12 -44 3 -57 -22 -32 -11 11 -15 25
-11 45 6 32 6 32 -27 17 -51 -23 -90 -141 -52 -156 24 -9 66 -76 140 -221 37
-73 72 -131 78 -129 7 2 23 26 37 53 26 51 45 61 64 32 8 -13 6 -50 -7 -140
-22 -154 -22 -177 3 -273 11 -43 29 -166 41 -274 11 -108 28 -254 37 -326 l17
-130 55 -12 c30 -6 67 -12 83 -12 l27 -1 -6 288 c-5 212 -4 307 6 362 17 102
92 372 139 500 59 160 84 263 79 321 -8 81 -26 82 -20 1 3 -53 -1 -86 -18
-143 -31 -104 -66 -193 -78 -197 -5 -1 -27 30 -47 70 -82 158 -148 246 -172
227 -7 -6 -11 -15 -8 -19 3 -4 -2 -13 -10 -20 -13 -10 -15 -9 -15 9 0 84 -129
-87 -171 -227 -6 -23 -16 -42 -21 -42 -16 0 -8 42 27 132 29 75 33 93 22 102
-20 16 -26 38 -16 64 7 18 16 22 51 22 24 0 58 -4 76 -10 39 -10 72 4 72 32 0
9 4 18 8 20 4 1 33 35 64 73 30 39 74 92 97 120 57 69 52 90 -7 32 -27 -26
-51 -45 -54 -42 -3 4 -21 -1 -39 -10 -25 -13 -49 -16 -100 -13 -75 6 -119 30
-144 79 -14 26 -14 30 3 47 11 11 40 21 71 25 56 7 115 37 131 68 10 18 7 19
-52 19 -86 0 -106 16 -31 22 78 7 146 43 214 113 53 55 56 56 97 49 46 -7 51
-19 32 -83 -5 -19 -8 -36 -6 -39 10 -10 47 27 61 61 25 62 20 81 -21 76 -4 0
-12 10 -18 22 -7 15 -29 29 -59 38 -52 16 -59 26 -24 37 30 9 74 44 56 44 -8
0 1 10 19 21 40 26 66 74 82 153 17 81 30 60 44 -66 6 -57 12 -93 14 -80 3 19
9 23 30 21 15 -2 33 0 40 4 17 11 15 62 -4 78 -8 7 -13 21 -11 31 3 10 1 18
-4 18 -5 0 -12 12 -15 28 -4 15 -14 32 -21 37 -10 7 -12 20 -8 38 9 32 25 26
25 -10 0 -22 3 -24 28 -19 15 4 32 14 38 22 10 12 13 12 17 2 3 -7 6 14 6 48
1 51 5 64 26 84 15 14 24 33 24 49 -2 24 -2 24 -6 4 -7 -35 -20 -27 -16 10 2
17 0 26 -3 19 -5 -10 -10 -8 -21 7 -10 15 -11 26 -4 38 9 16 11 16 20 -7 8
-22 9 -19 7 18 -3 33 0 42 10 38 22 -9 16 15 -24 94 -32 64 -45 78 -84 98 -48
25 -88 21 -53 -5 16 -11 12 -13 -36 -10 -41 3 -55 8 -57 20 -2 10 3 17 13 17
8 0 27 7 40 16 38 25 70 10 142 -61 35 -36 68 -65 73 -65 13 0 13 37 0 45 -6
4 -9 1 -8 -6 2 -6 -2 -13 -8 -16 -6 -2 -11 2 -11 9 0 7 -3 24 -7 38 -8 24 -8
24 8 5 15 -20 15 -19 16 6 0 28 -40 89 -86 129 -16 14 -23 18 -16 8 7 -9 9
-18 5 -20 -4 -3 -3 -3 4 -2 14 3 79 -74 70 -83 -3 -3 -20 5 -38 18 -22 15 -46
22 -78 22 -51 0 -70 16 -71 57 0 37 -11 70 -20 65 -5 -3 -6 -15 -4 -28 5 -21
4 -21 -8 -3 -97 141 -211 229 -357 274 l-56 17 70 5 c64 5 66 6 30 12 -22 3
-56 7 -75 7 -19 1 -42 4 -50 6 -8 3 -22 0 -30 -5z m223 -139 c41 -16 107 -63
102 -72 -3 -4 10 -29 30 -54 19 -26 35 -56 35 -67 0 -19 -2 -19 -21 6 -42 54
-133 89 -324 124 -48 9 -47 10 40 12 l90 1 -55 21 c-30 12 -84 22 -120 24
-100 3 -110 7 -45 14 77 9 234 4 268 -9z m176 -433 c29 -18 61 -90 93 -207 15
-58 28 -109 28 -113 0 -13 -93 5 -125 23 -30 18 -135 42 -222 52 -46 5 -83
-13 -83 -41 0 -9 7 -30 15 -46 20 -39 7 -53 -46 -48 -40 4 -42 6 -70 68 l-29
64 -48 0 c-26 -1 -66 -5 -89 -9 -49 -9 -54 -4 -44 53 7 46 57 92 110 102 33 7
34 6 29 -20 -11 -56 22 -44 102 38 38 39 68 60 95 67 22 6 58 17 80 25 46 17
173 12 204 -8z m59 -407 c16 -52 15 -90 -3 -142 -18 -50 -39 -75 -80 -97 -39
-20 -133 -19 -173 2 -41 21 -85 109 -80 162 3 36 4 37 21 20 10 -10 24 -15 32
-12 10 3 12 0 9 -12 -3 -9 1 -7 8 6 l14 23 12 -25 c10 -22 18 -26 57 -26 39 0
45 3 51 25 4 15 1 32 -6 40 -22 26 14 18 39 -9 16 -17 21 -31 16 -45 -7 -22
-10 -22 -117 -25 -57 -1 -70 -12 -32 -26 20 -8 41 -8 71 -1 23 6 53 11 67 11
23 0 31 9 27 33 0 4 7 7 18 7 31 0 40 21 31 70 -12 58 -12 60 -2 60 5 0 14
-17 20 -39z m-386 -82 c4 -8 17 -39 28 -70 27 -74 72 -136 115 -156 25 -12 34
-22 30 -34 -4 -11 5 -26 24 -42 28 -23 29 -26 13 -41 -40 -35 -202 -83 -202
-59 0 5 20 29 45 53 25 24 45 48 45 53 0 5 -28 6 -62 2 -74 -8 -114 4 -130 39
-9 20 -8 30 5 50 9 13 21 66 28 118 10 87 21 112 43 105 5 -2 13 -10 18 -18z
m-275 -90 c75 -13 103 -32 87 -57 -15 -23 -62 -33 -117 -26 -40 5 -52 11 -68
38 -10 17 -19 41 -19 53 0 20 3 21 25 13 13 -5 55 -15 92 -21z m447 -1184 l65
-64 -41 -122 c-26 -78 -43 -117 -48 -108 -5 8 -18 59 -30 114 -11 55 -28 124
-36 153 -15 50 -15 55 2 73 9 10 18 19 20 19 1 0 32 -29 68 -65z"/>
<path d="M2990 2746 c0 -2 6 -19 14 -37 7 -19 28 -108 46 -198 26 -132 31
-170 22 -193 -5 -15 -7 -28 -2 -28 4 0 13 -53 19 -117 7 -65 14 -131 15 -148
3 -32 -10 -165 -19 -194 -3 -9 -19 -25 -36 -35 -17 -10 -40 -34 -51 -52 -11
-19 -27 -34 -36 -34 -10 0 -13 -3 -7 -8 6 -4 10 -50 10 -102 1 -77 5 -105 24
-148 26 -57 73 -105 130 -129 20 -9 46 -20 58 -26 12 -5 31 -7 42 -4 12 3 19
1 15 -4 -3 -5 14 -9 37 -9 23 0 71 -5 106 -11 61 -11 64 -10 118 20 31 17 77
34 103 37 77 9 90 13 112 36 28 31 25 48 -7 47 l-28 -1 25 -8 c17 -6 0 -8 -55
-8 -64 1 -95 -4 -153 -25 -96 -35 -112 -35 -112 2 0 28 4 31 93 60 50 17 102
31 114 31 32 0 52 10 64 33 11 20 9 20 -76 15 -65 -5 -94 -11 -114 -25 -14
-11 -41 -28 -60 -37 -31 -17 -35 -17 -50 -1 -15 15 -14 17 9 36 20 15 21 18 5
13 -11 -4 -26 -12 -33 -17 -23 -18 -24 0 -2 49 17 37 21 61 18 105 -4 51 -2
58 16 65 19 6 18 7 -7 11 -17 3 -42 19 -59 39 -17 19 -43 42 -58 51 -44 26
-55 80 -95 490 -17 174 -42 303 -56 282 -7 -12 -9 -11 -9 1 0 8 -12 42 -26 75
-14 33 -26 65 -27 70 -4 17 -18 35 -28 35 -5 0 -9 -2 -9 -4z m250 -1053 c40
-51 11 -113 -53 -113 -43 0 -73 22 -87 65 -10 30 -9 40 4 60 28 42 98 36 136
-12z"/>
<path d="M1992 2703 c-47 -45 -59 -80 -75 -223 -9 -75 -13 -93 -15 -62 -3 44
-14 54 -28 25 -4 -10 -9 -90 -11 -177 -2 -88 -7 -164 -12 -170 -5 -6 -16 -27
-26 -46 -10 -18 -24 -40 -32 -48 -8 -8 -21 -25 -30 -38 -20 -32 -28 -30 -44 7
-16 40 -99 153 -106 146 -3 -3 6 -39 20 -80 26 -75 31 -96 68 -337 11 -74 29
-174 40 -222 23 -105 23 -102 4 -94 -12 4 -15 -3 -15 -32 0 -20 4 -43 9 -51 7
-10 0 -33 -19 -70 -15 -31 -35 -80 -44 -109 l-15 -53 47 8 c26 4 135 7 243 6
l197 -1 53 -29 c54 -30 54 -30 51 -74 -2 -24 -6 -107 -10 -184 l-7 -140 -35
-2 c-19 -1 -64 7 -100 17 -44 12 -114 20 -215 23 -85 3 -176 12 -210 20 -33 9
-97 23 -143 32 -46 9 -104 27 -130 41 -44 24 -91 68 -92 88 0 5 -16 26 -35 47
-19 21 -37 50 -41 64 -9 36 -20 31 -45 -17 -25 -52 -37 -172 -20 -219 13 -38
6 -53 -8 -18 -5 13 -10 18 -10 10 -2 -25 47 -97 90 -134 59 -49 295 -127 388
-127 16 0 34 -6 38 -14 4 -7 15 -16 23 -19 11 -4 10 -7 -7 -12 -20 -6 -23 -14
-23 -59 0 -28 -11 -85 -24 -126 -40 -126 -41 -139 -14 -149 22 -9 22 -10 -7
-11 -23 0 -27 -3 -15 -10 13 -8 12 -10 -2 -10 -11 0 -18 -8 -18 -20 0 -14 -11
-26 -32 -35 -30 -13 -11 -14 192 -15 168 0 229 3 239 12 11 10 14 10 18 1 3
-10 41 -13 143 -13 l138 0 0 48 c1 82 68 169 98 127 18 -24 38 -14 76 41 l33
46 3 -131 3 -131 124 0 c117 0 125 1 125 19 0 11 5 23 10 26 6 3 10 15 10 26
0 19 19 22 32 4 5 -6 8 -6 8 2 0 8 25 4 78 -13 42 -13 89 -24 104 -24 14 0 55
-9 90 -20 34 -11 78 -20 95 -20 31 0 32 1 22 26 -5 15 -7 30 -3 33 4 3 9 0 11
-6 3 -9 32 -13 96 -13 90 -1 91 -1 54 -15 -21 -7 -41 -16 -44 -19 -4 -3 49 -6
116 -6 94 0 122 3 119 13 -3 6 -20 17 -39 23 -28 10 -30 12 -14 17 15 3 12 5
-10 7 l-30 2 33 9 c17 5 32 15 32 22 0 7 -13 53 -29 102 -23 72 -30 117 -35
220 l-7 130 153 0 c169 0 213 11 272 71 30 31 76 115 75 136 0 7 -5 4 -10 -7
-8 -18 -9 -18 -8 5 1 14 1 38 0 54 l-1 29 -53 -50 c-29 -28 -62 -53 -74 -57
-12 -4 -49 5 -96 24 -96 38 -182 41 -227 8 l-29 -21 -55 39 c-118 84 -174 96
-200 46 -8 -16 -22 -34 -31 -42 -19 -16 -44 -6 -122 47 -42 29 -62 36 -95 35
-23 -1 -51 5 -64 13 -21 13 -22 19 -17 127 2 62 8 135 14 161 12 63 12 154 -1
162 -6 4 -10 -24 -10 -77 0 -83 -33 -328 -47 -353 -7 -11 -14 -10 -43 4 l-35
16 3 198 c3 186 -3 227 -24 180 -4 -10 -10 -62 -14 -116 -3 -63 -10 -101 -18
-106 -7 -4 -34 -2 -60 6 -26 8 -65 19 -87 26 -57 16 -165 65 -165 74 0 11 78
106 94 115 34 19 -32 349 -119 588 -50 139 -227 403 -349 520 -34 32 -36 37
-30 80 4 25 11 56 16 70 6 14 16 51 24 83 8 32 21 69 30 82 24 37 0 30 -44
-12z m112 -503 c95 -119 110 -141 169 -250 39 -74 110 -300 136 -436 l17 -90
-76 4 c-85 5 -140 -15 -178 -63 -32 -41 -40 -31 -37 51 3 82 19 115 76 162 34
27 38 66 10 82 -26 14 -51 -11 -51 -51 0 -36 -43 -97 -78 -110 -33 -13 -36 -7
-19 32 10 24 12 61 9 126 -5 108 7 262 18 223 7 -23 8 -22 15 13 10 49 -1 140
-20 177 -8 16 -35 43 -59 59 -46 32 -56 47 -56 86 0 13 -4 27 -10 30 -5 3 -10
31 -10 62 l0 56 26 -24 c15 -13 68 -76 118 -139z m-104 -198 c17 -14 25 -35
33 -93 14 -106 12 -234 -6 -308 -18 -75 -29 -90 -52 -71 -13 11 -15 10 -9 -6
3 -10 -4 -5 -15 13 -23 33 -68 199 -75 273 -2 25 -1 35 1 23 9 -45 20 -22 12
25 -23 132 -23 137 2 149 36 18 84 15 109 -5z m353 -1022 c43 -27 47 -33 47
-70 0 -28 4 -40 14 -40 8 0 28 -11 43 -24 23 -21 26 -28 17 -43 -7 -11 -24
-18 -45 -18 l-34 -1 -3 -79 c-2 -44 -7 -84 -11 -88 -8 -8 -81 103 -81 123 0 4
-5 10 -12 12 -7 3 -13 38 -16 96 -5 103 3 162 21 162 7 0 34 -13 60 -30z"/>
</g>
</svg>
